<svg width="39" height="34" viewBox="0 0 39 34" fill="none" xmlns="http://www.w3.org/2000/svg">
<path fill-rule="evenodd" clip-rule="evenodd" d="M0 10.3825C0 12.1591 0.413156 13.9357 0.991575 15.1751C1.28078 15.8775 1.61131 16.4559 2.02447 17.0756C4.21419 20.2983 7.76734 21.8269 11.8163 21.8269C12.1468 21.8269 12.3534 21.7856 12.6839 21.7856V9.59752C9.04812 7.98621 6.19734 4.97017 4.83393 1.21045C3.88367 1.78887 2.97472 2.57386 2.35499 3.40018C2.18973 3.60676 2.06578 3.77202 1.94183 3.93728C0.784997 5.67254 0 7.73832 0 10.3825Z" fill="#665BD5"/>
<path fill-rule="evenodd" clip-rule="evenodd" d="M25.911 10.1202V22.143L26.7786 22.1843C28.7205 22.1843 30.2492 21.8538 31.6952 21.3167C32.8107 20.9035 33.6783 20.3251 34.6286 19.6228L35.207 19.0857C35.4962 18.8378 36.3639 17.8049 36.5291 17.5157C36.6531 17.3504 36.7357 17.2678 36.8183 17.1025L37.2315 16.4001C37.2728 16.3175 37.3141 16.2762 37.3554 16.1936C38.6775 13.5907 38.9254 10.4094 38.1404 7.68255C37.686 6.11255 37.0662 5.03835 36.0747 3.75756C35.992 3.67493 35.9094 3.63362 35.8268 3.50967C35.6615 3.26178 35.1657 2.84862 34.8765 2.64204L34.3807 2.22889C34.1741 2.10494 34.0089 1.98099 33.8023 1.85705C33.761 1.81573 33.7197 1.81573 33.6783 1.77441C32.3149 5.49282 29.5055 8.50886 25.911 10.1202Z" fill="#665BD5"/>
<path fill-rule="evenodd" clip-rule="evenodd" d="M24.7676 11.2917C24.685 11.333 24.7676 11.2504 24.7263 11.333C24.6437 11.3743 24.3131 11.9528 23.9826 12.3246C23.4455 12.9443 22.5779 13.4814 21.7103 13.7706C21.0079 13.9772 19.975 14.1425 19.19 14.1012C17.744 13.9772 16.7524 13.812 15.5542 12.9856C15.4716 12.903 15.389 12.8617 15.3063 12.7791C15.2237 12.6964 15.1411 12.6138 15.0584 12.5312L14.6866 12.118C14.604 12.0767 14.6866 12.118 14.604 12.0767C14.5213 12.0354 14.4387 11.9114 14.3974 11.8288C13.6124 10.7546 13.5711 9.84566 13.4058 9.55645V21.6206L19.4379 27.1156C19.3966 27.0743 19.3966 27.1156 19.4379 27.0743L25.4287 21.6206V9.51514C25.346 9.88698 25.1395 10.548 25.0155 10.8786C24.9329 11.0438 24.8916 11.2091 24.7676 11.2917Z" fill="#665BD5"/>
<path fill-rule="evenodd" clip-rule="evenodd" d="M19.4379 27.0745V14.1014C19.3553 14.1014 19.2726 14.1014 19.19 14.1014C17.744 13.9774 16.7524 13.8121 15.5542 12.9858C15.4716 12.9032 15.389 12.8619 15.3063 12.7793C15.2237 12.6966 15.1411 12.614 15.0584 12.5314L14.6866 12.1182C14.604 12.0769 14.6866 12.1182 14.604 12.0769C14.5213 12.0356 14.4387 11.9116 14.3974 11.829C13.6124 10.7548 13.5711 9.84585 13.4058 9.55664V21.6208L19.3966 27.0745C19.3966 27.0745 19.3966 27.0745 19.4379 27.0745Z" fill="#665BD5"/>
<path fill-rule="evenodd" clip-rule="evenodd" d="M13.2373 6.60158C13.2373 7.72303 13.3271 8.53048 13.8209 9.51736C13.9107 9.65193 13.9556 9.83137 14.0454 9.96594C14.5392 10.7285 15.0779 11.4014 15.8411 11.8948C15.9309 11.9846 15.9758 12.0294 16.0655 12.0743C17.951 13.2854 20.6446 13.42 22.575 12.2088C23.7422 11.4911 24.4605 10.7285 25.0441 9.51736C26.0317 7.58846 25.7624 4.94182 24.5054 3.28207C24.0116 2.6092 23.5177 2.0709 22.7995 1.62232C22.7546 1.57746 22.6648 1.5326 22.575 1.48774C20.5548 0.276573 17.7266 0.366289 15.8411 1.80175C14.8983 2.51948 14.3596 3.1475 13.8209 4.17924C13.5516 4.76239 13.2373 5.74927 13.2373 6.60158Z" fill="#665BD5"/>
<path fill-rule="evenodd" clip-rule="evenodd" d="M13.3628 22.2402L10.8839 26.2478L13.9 28.7681L16.0484 24.7192L13.4042 22.3229L13.3628 22.2402ZM16.4615 25.091L15.2221 29.8423L19.4776 33.3541L23.6918 29.8423L22.411 25.0497L19.4362 27.7352L16.4615 25.091ZM19.3949 27.7352L16.4615 25.091L19.3949 27.7352ZM22.7828 24.6779L24.9725 28.7681L27.9473 26.2478L25.5096 22.2402L25.427 22.3229L22.7828 24.6779Z" fill="#665BD5"/>
</svg>
