<svg width="30" height="26" viewBox="0 0 30 26" fill="none" xmlns="http://www.w3.org/2000/svg">
<path fill-rule="evenodd" clip-rule="evenodd" d="M0 7.51436C0 8.88558 0.318888 10.2568 0.76533 11.2135C0.988552 11.7556 1.24366 12.202 1.56255 12.6803C3.25265 15.1677 5.99509 16.3476 9.12019 16.3476C9.3753 16.3476 9.53474 16.3157 9.78985 16.3157V6.90848C6.98364 5.66482 4.78331 3.33694 3.73098 0.435059C2.99754 0.881501 2.29599 1.48739 1.81766 2.12516C1.6901 2.28461 1.59444 2.41216 1.49877 2.53972C0.605886 3.87905 0 5.47348 0 7.51436Z" fill="#F6F6F7"/>
<path fill-rule="evenodd" clip-rule="evenodd" d="M19.9985 7.31214V16.5918L20.6682 16.6237C22.167 16.6237 23.3469 16.3685 24.463 15.954C25.324 15.6351 25.9936 15.1887 26.7271 14.6466L27.1735 14.232C27.3967 14.0407 28.0664 13.2434 28.1939 13.0202C28.2896 12.8927 28.3534 12.8289 28.4172 12.7013L28.7361 12.1592C28.7679 12.0955 28.7998 12.0636 28.8317 11.9998C29.8522 9.99079 30.0435 7.53536 29.4376 5.4307C29.0868 4.21893 28.6085 3.38982 27.8432 2.40127C27.7794 2.33749 27.7156 2.3056 27.6518 2.20993C27.5243 2.0186 27.1416 1.69971 26.9184 1.54027L26.5357 1.22138C26.3763 1.12572 26.2487 1.03005 26.0893 0.934383C26.0574 0.902494 26.0255 0.902494 25.9936 0.870605C24.9413 3.74059 22.7729 6.06847 19.9985 7.31214Z" fill="#F6F6F7"/>
<path fill-rule="evenodd" clip-rule="evenodd" d="M19.1171 8.21643C19.0533 8.24832 19.1171 8.18454 19.0852 8.24832C19.0214 8.28021 18.7663 8.72665 18.5112 9.01365C18.0966 9.49198 17.427 9.90654 16.7573 10.1298C16.2152 10.2892 15.418 10.4168 14.8121 10.3849C13.696 10.2892 12.9306 10.1616 12.0059 9.52387C11.9421 9.46009 11.8783 9.4282 11.8145 9.36443C11.7508 9.30065 11.687 9.23687 11.6232 9.17309L11.3362 8.85421C11.2724 8.82232 11.3362 8.85421 11.2724 8.82232C11.2087 8.79043 11.1449 8.69476 11.113 8.63099C10.5071 7.80188 10.4752 7.10032 10.3477 6.8771V16.1886L15.0034 20.4298C14.9715 20.3979 14.9715 20.4298 15.0034 20.3979L19.6273 16.1886V6.84521C19.5635 7.13221 19.4041 7.64243 19.3084 7.89754C19.2446 8.0251 19.2127 8.15265 19.1171 8.21643Z" fill="#F6F6F7"/>
<path fill-rule="evenodd" clip-rule="evenodd" d="M15.0034 20.3983V10.3852C14.9396 10.3852 14.8759 10.3852 14.8121 10.3852C13.696 10.2895 12.9306 10.162 12.0059 9.52421C11.9421 9.46043 11.8783 9.42854 11.8145 9.36476C11.7508 9.30099 11.687 9.23721 11.6232 9.17343L11.3362 8.85454C11.2724 8.82266 11.3362 8.85454 11.2724 8.82266C11.2087 8.79077 11.1449 8.6951 11.113 8.63132C10.5071 7.80222 10.4752 7.10066 10.3477 6.87744V16.189L14.9715 20.3983C14.9715 20.3983 14.9715 20.3983 15.0034 20.3983Z" fill="#F6F6F7"/>
<path fill-rule="evenodd" clip-rule="evenodd" d="M10.2161 4.59634C10.2161 5.46191 10.2854 6.08513 10.6665 6.84684C10.7358 6.9507 10.7705 7.0892 10.8398 7.19307C11.2209 7.78166 11.6367 8.301 12.2257 8.68186C12.295 8.7511 12.3297 8.78572 12.399 8.82035C13.8543 9.75517 15.9333 9.85904 17.4232 8.92422C18.3241 8.37025 18.8785 7.78166 19.3289 6.84684C20.0912 5.35804 19.8833 3.31529 18.9131 2.03423C18.532 1.51489 18.1508 1.09941 17.5965 0.753181C17.5618 0.718558 17.4925 0.683935 17.4232 0.649312C15.864 -0.28551 13.681 -0.216264 12.2257 0.891673C11.4981 1.44564 11.0823 1.93036 10.6665 2.72669C10.4586 3.17679 10.2161 3.9385 10.2161 4.59634Z" fill="#F6F6F7"/>
<path fill-rule="evenodd" clip-rule="evenodd" d="M9.91186 16.8779L7.99854 19.9711L10.3264 21.9164L11.9846 18.7913L9.94375 16.9417L9.91186 16.8779ZM12.3035 19.0783L11.3469 22.7455L14.6314 25.456L17.8841 22.7455L16.8955 19.0464L14.5995 21.1191L12.3035 19.0783ZM14.5676 21.1191L12.3035 19.0783L14.5676 21.1191ZM17.1825 18.7594L18.8726 21.9164L21.1686 19.9711L19.2872 16.8779L19.2234 16.9417L17.1825 18.7594Z" fill="#F6F6F7"/>
</svg>
